<svg width="512" height="816" viewBox="0 0 512 816" fill="none" xmlns="http://www.w3.org/2000/svg">
<path d="M223.5 0C223.5 40.5925 190.143 73.4988 149 73.4988C190.145 73.4988 223.5 106.407 223.5 147C223.5 106.407 256.855 73.4988 298 73.4988C256.855 73.4988 223.5 40.5928 223.5 0Z" fill="#FFF3EA"/>
<path d="M437.5 286C437.5 326.593 404.143 359.499 363 359.499C404.145 359.499 437.5 392.407 437.5 433C437.5 392.407 470.855 359.499 512 359.499C470.855 359.499 437.5 326.593 437.5 286Z" fill="#FFF3EA"/>
<path d="M74.5 474C74.5 514.593 41.1431 547.499 0 547.499C41.1452 547.499 74.5 580.407 74.5 621C74.5 580.407 107.855 547.499 149 547.499C107.855 547.499 74.5 514.593 74.5 474Z" fill="#FFF3EA"/>
<path d="M298.5 669C298.5 709.593 265.143 742.499 224 742.499C265.145 742.499 298.5 775.407 298.5 816C298.5 775.407 331.855 742.499 373 742.499C331.855 742.499 298.5 709.593 298.5 669Z" fill="#FFF3EA"/>
<path d="M373.5 522C373.5 562.593 340.143 595.499 299 595.499C340.145 595.499 373.5 628.407 373.5 669C373.5 628.407 406.855 595.499 448 595.499C406.855 595.499 373.5 562.593 373.5 522Z" fill="#FFF3EA"/>
<path d="M171.5 237C171.5 277.593 138.143 310.499 97 310.499C138.145 310.499 171.5 343.407 171.5 384C171.5 343.407 204.855 310.499 246 310.499C204.855 310.499 171.5 277.593 171.5 237Z" fill="#FFF3EA"/>
</svg>
